<?xml version="1.0" encoding="utf-8"?>
<!-- Generator: Adobe Illustrator 25.4.1, SVG Export Plug-In . SVG Version: 6.00 Build 0)  -->
<svg version="1.1" xmlns="http://www.w3.org/2000/svg" xmlns:xlink="http://www.w3.org/1999/xlink" x="0px" y="0px"
	 viewBox="0 0 275.5 133.1" style="enable-background:new 0 0 275.5 133.1;" xml:space="preserve">
<style type="text/css">
	.st0{enable-background:new    ;}
	.st1{fill:#FFFFFF;}
	.st2{fill:#1D1D1B;}
	.st3{fill:#E20613;}
</style>
<g id="Ellipse_5_00000139987449408496648820000012290326145660249772_" class="st0">
	<g id="Ellipse_5">
		<g>
			<ellipse class="st1" cx="137.7" cy="66.6" rx="137.7" ry="66.6"/>
		</g>
	</g>
</g>
<g id="Layer_3">
	<path class="st2" d="M134.1,21.5c-19,0.2-44.4,3.7-60,8.4c-15.5,4.7-20.3,4.7-2.2-3.8c9.9-4.6,31.5-9.7,61.8-9.8
		c59.2-0.3,109.9,28.4,110.3,56.1c0.4,28.5-47,45.6-106.2,46.4c-58.9,0.8-113-25.4-106.4-50.9c5.7-21.9,38.4-37.2,79.9-40.8
		c22.1-1.9,47.9-3.3,84.6,13c2.5,1.1,2.3,7.4,5.8,11.9c-34.1-18.2-60.5-21-91.1-18.9C67.3,36,37,53.6,37,72.3
		c0.1,20.2,45.2,41.3,100.6,40.6c55.9-0.8,100.2-16.3,99.9-38.1C237.2,52.3,189.5,20.8,134.1,21.5L134.1,21.5z"/>
	<path class="st3" d="M133.7,20.2c-19,0.2-44.4,3.7-60,8.4c-15.5,4.7-20.3,4.7-2.2-3.8c9.9-4.6,31.5-9.7,61.8-9.8
		c59.2-0.3,109.9,28.4,110.3,56.1c0.4,28.5-47,45.6-106.2,46.4c-58.9,0.8-113-25.4-106.4-50.9c5.7-21.9,38.4-37.2,79.9-40.8
		c22.1-1.9,47.9-3.3,84.6,13c2.5,1.1,2.3,7.4,5.8,11.9c-34.1-18.2-60.5-21-91.1-18.9C66.9,34.7,36.5,52.3,36.6,71
		c0.1,20.2,45.2,41.3,100.6,40.6c55.9-0.8,100.2-16.3,99.9-38.1C236.8,51,189.1,19.5,133.7,20.2L133.7,20.2z"/>
	<path class="st2" d="M128.6,88.1c-0.1,0.7,0.3,1.4,1.5,1.5c1.4,0.1,1.8,0.1,3.1,0.1c1.4,0,1.8-0.3,2.3-1.7c0.5-1.4,6.2-12.5,9-19
		c2.5-5.1,0.5-9.1-5.7-9.1c-4.1,0-9.9,2.6-13.5,8.5c-0.7,1.1-0.7,2.1,0,2.6c0.6,0.4,1.8,0.7,3,0.9c1.1,0.2,1.9-0.2,2.6-1.1
		c2.2-2.7,4.5-4.9,6.3-4.9c0.8,0,1.2,0.4,0.5,1.7c-0.7,1.3-3.3,6.5-3.3,6.5s-1.1-0.1-1.4-0.1h-0.6c-5.7,0.1-12.2,3.3-14.1,7.8
		c-1.9,4.4,0.4,7.6,4.5,7.6c2.3,0,4.2-0.6,6.1-2l-0.3,0.5C128.7,87.8,128.6,87.9,128.6,88.1 M126.7,83.5c-1.3,0-1.6-0.5-1.6-1.1
		c0-1.2,2.3-3.2,5.8-3.2c0.7,0,1.1,0,1.1,0l-1.6,3.3C130.3,82.6,128.5,83.5,126.7,83.5z M117.4,76.1c1-1.2,2.5-3.3,3.5-4.4
		c0.9-1.1,0.6-1.8-0.9-2.2c-2.5-0.6-4.6-0.7-7.4-0.6c0,0,15.5-19.2,17-21c1-1.2,0.3-1.8-0.5-2.3c-0.4-0.3-1.1-0.7-2.3-1.3
		c-1.2-0.7-2.1-0.1-2.8,0.5c-1.8,1.6-4.5,5.1-5.1,5.9l-15,19.3l-10.1,1.4l13.6-15c2.8-3.2,3.9-6.2,3.9-9c0-3.2-2.8-6.7-8.2-6.7
		c-9.8,0-24,4.3-28.8,6c-5.1,1.8-8.4,3.2-12.2,5.3c-1,0.6-3.2,3.3-4.3,5.6c-0.9,2.1-1.3,3.9-1.3,5.1c0,1.7,1.3,2.8,2.8,2.8
		c1.1,0,2.2-0.5,3.7-1.5c2.5-1.7,21.6-16.4,37.2-16.4c1.4,0,2.9,0.3,2.9,2.1c0,2.4-3.9,5.9-5.5,7.7L84,71.9
		c-4.9,0.6-9.3,0.8-11.1,1.1c-1.9,0.3-3,0.5-3.8,2c-0.8,1.5-1.6,2.9-2,4.1c-0.4,1.2-0.1,2.2,2.1,1.9c2.2-0.3,4.8-0.5,7-0.9
		c0,0-7.5,10-8.5,11.4c-1,1.3-1.1,2.4-0.2,3c0.7,0.5,2.4,0.9,3.5,1.4c1.2,0.4,1.9,0,2.7-0.9c0.8-1,12.9-15.8,12.9-15.8l11.7-1.7
		c-2.2,4.2-5.1,9.1-5.7,10.8C91.9,90,91.7,91,91.7,92c0,1.9,0.9,3,3.4,3c1.4-0.1,4.8-0.6,5.8-0.9c0.9-0.3,1.4-0.9,1.1-2.2
		c-0.3-1.2-0.3-2.9,0.9-5.7c1.2-2.8,3.9-6.7,5.5-9.3c2.3-0.2,4.1-0.1,6,0.2C115.7,77.3,116.3,77.4,117.4,76.1z M135.6,103.8
		c1,0.3,1.5,0.4,2.4,0.7c1.2,0.3,1.8-0.1,2.2-0.4c0.4-0.3,0.9-1.5,1.5-2.6c1.4-2.9,5.5-12.3,5.5-12.3s0.8,0.6,2.5,0.6
		c3,0,6.9-1.8,10.2-5.6c5.4-6,8.1-11.8,8.1-15.5c0-3.1-2.1-5.2-5.8-5.2c-1.2,0-2.4,0.3-3.4,0.9c0.3-0.6,0.3-0.6,0.6-1.4
		c0.5-1.1,0-1.7-0.8-2l-2.5-0.6c-0.8-0.2-1-0.2-1-0.2c-0.9-0.2-1.7,0.3-2,1c-0.4,0.7-17.8,37.7-18.2,38.4c-0.4,0.8-0.8,1.6-0.8,2
		c-0.1,0.6,0,1,0.2,1.3C134.5,103.2,135,103.6,135.6,103.8z M155.5,72.2l1-2.1c0,0,1.3-1.7,2.9-1.7c0.6,0,1.1,0.3,1.1,1.1
		c0,1.1-0.6,2.9-1.5,4.6c-3.7,6.9-7.3,10-8.6,10c-0.3,0-0.5-0.2-0.5-0.2L155.5,72.2z M160.1,103.8c1,0.3,1.5,0.4,2.4,0.7
		c1.2,0.3,1.8-0.1,2.2-0.4c0.4-0.3,0.9-1.5,1.5-2.6c1.4-2.9,5.5-12.3,5.5-12.3s0.8,0.6,2.5,0.6c3,0,6.9-1.8,10.2-5.6
		c5.4-6,8.1-11.8,8.1-15.5c0-3.1-2.1-5.2-5.8-5.2c-1.2,0-2.4,0.3-3.4,0.9c0.3-0.6,0.3-0.6,0.6-1.4c0.5-1.1,0-1.7-0.8-2l-2.5-0.6
		c-0.8-0.2-1-0.2-1-0.2c-0.9-0.2-1.7,0.3-2,1c-0.4,0.7-17.8,37.7-18.2,38.4c-0.4,0.8-0.8,1.6-0.8,2c-0.1,0.6,0,1,0.2,1.3
		C158.9,103.2,159.4,103.6,160.1,103.8z M180,72.2l1-2.1c0,0,1.3-1.7,2.9-1.7c0.6,0,1.1,0.3,1.1,1.1c0,1.1-0.6,2.9-1.5,4.6
		c-3.7,6.9-7.3,10-8.6,10c-0.3,0-0.5-0.2-0.5-0.2L180,72.2z M205.6,66c0.3-0.9-0.2-1.5-1-1.6c0,0-1.9-0.5-2.9-0.7
		c-1-0.2-2.2-0.2-2.7,1.2c-0.5,1.2-4.7,12.8-5.7,16.5c-1,3.7,0.4,5.9,2.7,5.9c0.2,0,0.3,0,0.3,0s-6.5,9.4-8.1,11.7
		c-1,1.4-0.9,1.9,0,2.4c0.9,0.5,3.4,1.3,3.4,1.3c1,0.4,1.5,0.2,2.1-0.5c0.5-0.7,25-37.2,25.6-38.1c0.6-0.9,0.5-1.8-0.8-2.1
		c0,0-2.3-0.4-3.4-0.7c-1.1-0.3-1.6-0.1-2.1,0.7c-0.6,0.8-13.1,20.8-13.1,20.8s-0.5,0-0.3-0.7C199.7,81.4,205.2,66.9,205.6,66z"/>
	<path class="st3" d="M127.8,86.6c-0.1,0.7,0.3,1.4,1.5,1.5c1.4,0.1,1.8,0.1,3.1,0.1c1.4,0,1.8-0.3,2.3-1.7c0.5-1.4,6.2-12.5,9-19
		c2.5-5.1,0.5-9.1-5.7-9.1c-4.1,0-9.9,2.6-13.5,8.5c-0.7,1.1-0.7,2.1,0,2.6c0.6,0.4,1.8,0.7,3,0.9c1.1,0.2,1.9-0.2,2.6-1.1
		c2.2-2.7,4.5-4.9,6.3-4.9c0.8,0,1.2,0.4,0.5,1.7c-0.7,1.3-3.3,6.5-3.3,6.5s-1.1-0.1-1.4-0.1h-0.6c-5.7,0.1-12.2,3.3-14.1,7.8
		c-1.9,4.4,0.4,7.6,4.5,7.6c2.3,0,4.2-0.6,6.1-2l-0.3,0.5C127.9,86.4,127.8,86.5,127.8,86.6 M125.9,82c-1.3,0-1.6-0.5-1.6-1.1
		c0-1.2,2.3-3.2,5.8-3.2c0.7,0,1.1,0,1.1,0l-1.6,3.3C129.5,81.1,127.7,82,125.9,82z M116.6,74.7c1-1.2,2.5-3.3,3.5-4.4
		c0.9-1.1,0.6-1.8-0.9-2.2c-2.5-0.6-4.6-0.7-7.4-0.6c0,0,15.5-19.2,17-21c1-1.2,0.3-1.8-0.5-2.3c-0.4-0.3-1.1-0.7-2.3-1.3
		c-1.2-0.7-2.1-0.1-2.8,0.5c-1.8,1.6-4.5,5.1-5.1,5.9l-15,19.3l-10.1,1.4l13.6-15c2.8-3.2,3.9-6.2,3.9-9c0-3.2-2.8-6.7-8.2-6.7
		c-9.8,0-24,4.3-28.8,6c-5.1,1.8-8.4,3.2-12.2,5.3c-1,0.6-3.2,3.3-4.3,5.6c-0.9,2.1-1.3,3.9-1.3,5.1c0,1.7,1.3,2.8,2.8,2.8
		c1.1,0,2.2-0.5,3.7-1.5c2.5-1.7,21.6-16.4,37.2-16.4c1.4,0,2.9,0.3,2.9,2.1c0,2.4-3.9,5.9-5.5,7.7L83.2,70.4
		c-4.9,0.6-9.3,0.8-11.1,1.1c-1.8,0.3-3,0.5-3.8,2c-0.8,1.5-1.6,2.9-2,4.1c-0.4,1.2-0.1,2.2,2.1,1.9c2.2-0.3,4.8-0.5,7-0.9
		c0,0-7.5,10-8.5,11.4c-1,1.3-1.1,2.4-0.2,3c0.7,0.5,2.4,0.9,3.5,1.4c1.2,0.4,1.9,0,2.7-0.9c0.8-1,12.9-15.8,12.9-15.8l11.7-1.7
		c-2.2,4.2-5.1,9.1-5.7,10.8c-0.6,1.7-0.9,2.7-0.9,3.7c0,1.9,0.9,3,3.4,3c1.4-0.1,4.8-0.6,5.8-0.9c0.9-0.3,1.4-0.9,1.1-2.2
		c-0.3-1.2-0.3-2.9,0.9-5.7c1.2-2.8,3.9-6.7,5.5-9.3c2.2-0.2,4.1-0.1,6,0.2C114.9,75.8,115.5,75.9,116.6,74.7z M134.8,102.3
		c1,0.3,1.5,0.4,2.4,0.7c1.2,0.3,1.8-0.1,2.2-0.4c0.4-0.3,0.9-1.5,1.5-2.6c1.4-2.9,5.5-12.3,5.5-12.3s0.8,0.6,2.5,0.6
		c3,0,6.9-1.8,10.2-5.6c5.4-6,8.1-11.8,8.1-15.5c0-3.1-2.1-5.2-5.8-5.2c-1.2,0-2.4,0.3-3.4,0.9c0.3-0.6,0.3-0.6,0.6-1.4
		c0.5-1.1,0-1.7-0.8-2l-2.5-0.6c-0.8-0.2-1-0.2-1-0.2c-0.9-0.2-1.7,0.3-2,1c-0.4,0.7-17.8,37.7-18.2,38.4c-0.4,0.8-0.8,1.6-0.8,2
		c-0.1,0.6,0,1,0.2,1.3C133.7,101.8,134.2,102.1,134.8,102.3z M154.7,70.7l1-2.1c0,0,1.3-1.7,2.9-1.7c0.6,0,1.1,0.3,1.1,1.1
		c0,1.1-0.6,2.9-1.5,4.6c-3.7,6.9-7.3,10-8.6,10c-0.3,0-0.5-0.2-0.5-0.2L154.7,70.7z M159.3,102.3c1,0.3,1.5,0.4,2.4,0.7
		c1.2,0.3,1.8-0.1,2.2-0.4c0.4-0.3,0.9-1.5,1.5-2.6c1.4-2.9,5.5-12.3,5.5-12.3s0.8,0.6,2.5,0.6c3,0,6.9-1.8,10.2-5.6
		c5.4-6,8.1-11.8,8.1-15.5c0-3.1-2.1-5.2-5.8-5.2c-1.2,0-2.4,0.3-3.4,0.9c0.3-0.6,0.3-0.6,0.6-1.4c0.5-1.1,0-1.7-0.8-2l-2.5-0.6
		c-0.8-0.2-1-0.2-1-0.2c-0.9-0.2-1.7,0.3-2,1c-0.4,0.7-17.8,37.7-18.2,38.4c-0.4,0.8-0.8,1.6-0.8,2c-0.1,0.6,0,1,0.2,1.3
		C158.1,101.8,158.6,102.1,159.3,102.3z M179.2,70.7l1-2.1c0,0,1.3-1.7,2.9-1.7c0.6,0,1.1,0.3,1.1,1.1c0,1.1-0.6,2.9-1.5,4.6
		c-3.7,6.9-7.3,10-8.6,10c-0.3,0-0.5-0.2-0.5-0.2L179.2,70.7z M204.8,64.5c0.3-0.9-0.2-1.5-1-1.6c0,0-1.9-0.5-2.9-0.7
		c-1-0.2-2.2-0.2-2.7,1.2c-0.5,1.2-4.7,12.8-5.7,16.5c-1,3.7,0.4,5.9,2.7,5.9c0.2,0,0.3,0,0.3,0s-6.5,9.4-8.1,11.7
		c-1,1.4-0.9,1.9,0,2.4c0.9,0.5,3.4,1.3,3.4,1.3c1,0.4,1.5,0.2,2.1-0.5c0.5-0.7,25-37.2,25.6-38.1c0.6-0.9,0.5-1.8-0.8-2.1
		c0,0-2.3-0.4-3.4-0.7c-1.1-0.3-1.6-0.1-2.1,0.7c-0.6,0.8-13.1,20.8-13.1,20.8s-0.5,0-0.3-0.7C198.9,79.9,204.4,65.5,204.8,64.5z"/>
</g>
</svg>
